<?xml version="1.0" encoding="utf-8"?>
<!-- Generator: Adobe Illustrator 27.5.0, SVG Export Plug-In . SVG Version: 6.00 Build 0)  -->
<svg version="1.1" xmlns="http://www.w3.org/2000/svg" xmlns:xlink="http://www.w3.org/1999/xlink" x="0px" y="0px"
	 viewBox="0 0 750 500" style="enable-background:new 0 0 750 500;" xml:space="preserve">
<g id="BACKGROUND">
	<rect style="fill:#F9F0E1;" width="750" height="500"/>
</g>
<g id="OBJECTS">
	<g>
		<g>
			<g>
				<g>
					<path style="fill:#262722;" d="M183.379,438.977l9.73,5.356c1.031,0.568,1.656,1.868,1.336,3.1
						c-0.253,0.974-1.084,1.717-3.248,1.76c-4.81,0.096-26.096-3.452-26.096-3.452v2.735l-9.947,0.025
						c0,0-0.622-14.116,2.386-15.961L183.379,438.977z"/>
					<path style="fill:#E8AF94;" d="M170.344,430.241l13.035,8.736c0,0-1.677,4.811-9.105,1.604
						c-7.428-3.208-16.734-8.039-16.734-8.039l1.357-3.663L170.344,430.241z"/>
				</g>
				<polygon style="fill:#E8AF94;" points="158.896,428.878 157.54,388.348 170.459,389.202 170.459,434.445 				"/>
			</g>
			<g>
				<g>
					<path style="fill:#262722;" d="M72.706,438.977l-9.73,5.356c-1.031,0.568-1.656,1.868-1.336,3.1
						c0.253,0.974,1.084,1.717,3.248,1.76c4.81,0.096,26.096-3.452,26.096-3.452v2.859l9.806-0.124c0,0,0.763-14.092-2.245-15.936
						L72.706,438.977z"/>
					<path style="fill:#E8AF94;" d="M85.741,430.241l-13.035,8.736c0,0,1.677,4.811,9.105,1.604
						c7.428-3.208,16.734-8.039,16.734-8.039l-1.357-3.663L85.741,430.241z"/>
				</g>
				<polygon style="fill:#E8AF94;" points="97.188,428.878 107.391,388.348 94.471,389.202 84.502,435.371 				"/>
			</g>
			<g>
				<g>
					<path style="fill:#E180A0;" d="M163.424,204.947c0,0,17.644,25.279,17.166,52.915c-0.478,27.636-6.249,158.741-6.249,158.741
						h-21.002l-6.648-171.316l-2.773-0.169l-37.94,171.554l-19.601-2.076l22.778-155.131c1.559-9.966,4.231-19.736,8.111-29.047
						c3.316-7.958,7.865-17.016,13.549-24.038L163.424,204.947z"/>
					
						<line style="fill:none;stroke:#000000;stroke-width:0.9147;stroke-linecap:round;stroke-linejoin:round;stroke-miterlimit:10;" x1="137.659" y1="246.582" x2="151.089" y2="244.242"/>
				</g>
				
					<line style="fill:none;stroke:#D4688F;stroke-width:0.9519;stroke-linecap:round;stroke-linejoin:round;stroke-miterlimit:10;" x1="127.007" y1="221.581" x2="120.532" y2="240.217"/>
			</g>
		</g>
		<path style="fill:#A74B22;" d="M117.166,98.591c0,0-1.47,14.718-18.17,26.561c-17.807,12.628-4.537,47.58,28.159,45.95
			c35.518-1.77,50.256-47.399,27.085-82.056L117.166,98.591z"/>
		<g>
			<g>
				<path style="fill:#7B97FB;" d="M142.076,142.007l-21.527,6.049c-6.213,1.746-11.192,8.338-9.315,14.513l19.384,43.865
					l32.805-1.487l11.531-47.525c0.989-6.457-5.708-12.32-12.199-13.06L142.076,142.007z"/>
				<path style="fill:#E0A78F;" d="M120.549,148.057l21.527-6.049l20.68,2.355l-0.428,0.359
					C150.531,154.612,133.766,155.95,120.549,148.057L120.549,148.057z"/>
			</g>
			<g>
				<g>
					<path style="fill:#E0A78F;" d="M190.415,200.781l-24.51,21.753l4.287,7.404l28.304-17.25c4.579-2.92,6.669-8.697,4.633-13.732
						c-0.1-0.249-0.209-0.495-0.326-0.738l-3.285-6.835L190.415,200.781z"/>
					<g>
						<path style="fill:#7B97FB;" d="M182.861,157.784l20.394,34.878c0.997,2.496-0.315,5.316-2.866,6.161l-9.831,3.256
							c-1.499,0.497-3.149,0.091-4.231-1.06c-3.618-3.847-19.512-15.97-19.009-30.783l-5.649-10.116l1.087-15.757
							C173.293,145.634,180.903,152.981,182.861,157.784z"/>
						
							<line style="fill:none;stroke:#000000;stroke-width:0.865;stroke-linecap:round;stroke-linejoin:round;stroke-miterlimit:10;" x1="169.535" y1="180.679" x2="174.093" y2="165.69"/>
					</g>
					<path style="fill:#E0A78F;" d="M174.093,223.594c-0.539,0.48-3.738,14.719-3.738,14.719l-4.449-15.78L174.093,223.594z"/>
					
						<line style="fill:none;stroke:#D4688F;stroke-width:0.9519;stroke-linecap:round;stroke-linejoin:round;stroke-miterlimit:10;" x1="165.345" y1="220.697" x2="170.922" y2="240.31"/>
				</g>
			</g>
			<g>
				<g>
					<g>
						<g>
							<path style="fill:#7B97FB;" d="M103.904,162.321L87.64,199.305c-0.704,2.594,0.922,5.245,3.553,5.792l7.668,1.728
								c1.546,0.322,2.504,3.996,3.447,2.729c3.154-4.237,20.661-21.985,18.464-36.644l4.453-10.697l-4.675-14.157
								C110.227,150.526,105.3,157.325,103.904,162.321z"/>
							
								<line style="fill:none;stroke:#000000;stroke-width:0.865;stroke-linecap:round;stroke-linejoin:round;stroke-miterlimit:10;" x1="119.765" y1="183.539" x2="113.521" y2="169.17"/>
						</g>
					</g>
				</g>
				<g>
					<g>
						<path style="fill:#E0A78F;" d="M66.141,159.615l-7.639,3.13l30.78,44.03c2.438,4.899,8.8,6.256,13.025,2.779l0,0
							c3.513-2.891,4.131-8.033,1.402-11.674L66.141,159.615z"/>
					</g>
					<g>
						<g>
							<path style="fill:#E0A78F;" d="M66.489,161.83l1.552-2.314c1.138-1.696,1.627-3.745,1.378-5.772l-0.693-5.65
								c0,0-0.313-2.986-5.959-0.998c-5.646,1.988-5.98,2.098-5.54,3.807c0,0,1.578,2.161,5.426,1.836L66.489,161.83z"/>
							<path style="fill:#E0A78F;" d="M59.326,164.267c0,0-6.418-1.936-8.856-11.917c-0.281-1.15,0.055-2.371,0.884-3.215
								c1.276-1.3,5.028-4.688,7.667-3.612l5.147,4.324l2.321,11.984L59.326,164.267z"/>
							<path style="fill:#E0A78F;" d="M64.627,147.913l-0.298-16.864c-0.018-1.005-0.839-1.809-1.844-1.806l0,0
								c-1.003,0.003-1.819,0.81-1.833,1.813l-0.179,12.842l-1.3,0.553l-7.364-11.362c-0.518-0.798-1.596-1.005-2.372-0.454l0,0
								c-0.679,0.482-0.9,1.39-0.519,2.13l8.308,16.138L64.627,147.913z"/>
						</g>
						
							<path style="fill:none;stroke:#B9635E;stroke-width:0.6407;stroke-linecap:round;stroke-linejoin:round;stroke-miterlimit:10;" d="
							M64.603,146.577c0,0-8.04,0.951-7.378,4.326c0,0,0.375,2.551,5.426,1.836c0,0-2.914,1.542-2.29,5.036"/>
					</g>
				</g>
			</g>
		</g>
		<g>
			<g>
				<path style="fill:#E0A78F;" d="M128.036,114.994c0.367,3.246-1.967,6.175-5.213,6.542c-3.246,0.367-6.175-1.967-6.542-5.213
					c-0.367-3.246,1.967-6.175,5.214-6.542C124.741,109.414,127.669,111.748,128.036,114.994z"/>
				
					<path style="fill:none;stroke:#B9635E;stroke-width:0.6612;stroke-linecap:round;stroke-linejoin:round;stroke-miterlimit:10;" d="
					M118.743,115.112c0,0,2.247-1.339,4.825,2.544"/>
			</g>
			<g>
				<path style="fill:#E0A78F;" d="M149.569,113.344c0.275,3.255,3.137,5.671,6.392,5.396c3.255-0.275,5.671-3.136,5.396-6.392
					c-0.275-3.255-3.136-5.671-6.392-5.396C151.711,107.227,149.295,110.089,149.569,113.344z"/>
				
					<path style="fill:none;stroke:#B9635E;stroke-width:0.6612;stroke-linecap:round;stroke-linejoin:round;stroke-miterlimit:10;" d="
					M158.707,111.643c0,0-2.466-0.874-4.234,3.438"/>
			</g>
			
				<ellipse transform="matrix(0.9965 -0.0841 0.0841 0.9965 -7.9202 11.9172)" style="fill:#A74B22;" cx="137.435" cy="99.93" rx="20.345" ry="18.99"/>
			<g>
				<path style="fill:#E0A78F;" d="M145.49,125.537c0,0-2.352,2.556-4.628,3.328c-2.276,0.771-4.688-0.798-4.719-0.817
					c-0.031-0.019-2.89-1.809-2.89-1.809l0.548,19.49l0.329,0.298c4.306,3.908,9.996,3.487,13.627-1.009l0.531-0.658L145.49,125.537
					z"/>
			</g>
			<path style="fill:#1E0B02;" d="M131.201,123.831c0,0,4.227,11.059,10.055,10.455c4.79-0.497,5.229-11.178,5.229-11.178
				L131.201,123.831z"/>
			<path style="fill:#E0A78F;" d="M153.791,101.888c0.571,6.374,0.112,11.959-0.488,15.948c-0.588,3.905-2.964,6.81-6.469,9.291
				l-0.638,0.452c-3.708,2.625-8.757,3.13-12.925,1.294l0,0c-4.204-1.852-7.269-4.516-8.5-8.54
				c-2.238-7.319-3.149-15.564-3.149-15.564s-2.8-17.134,14.577-18.375C153.575,85.153,153.791,101.888,153.791,101.888z"/>
			<g>
				
					<polyline style="fill:none;stroke:#B9635E;stroke-width:0.6612;stroke-linecap:round;stroke-linejoin:round;stroke-miterlimit:10;" points="
					137.048,112.18 137.258,114.672 138.962,114.528 				"/>
				<path d="M124.502,104.218l9.108-1.602c0,0-1.023-2.309-4.701-1.61C125.146,101.721,124.502,104.218,124.502,104.218z"/>
				<path d="M149.73,102.087l-9.247-0.053c0,0,0.621-2.447,4.364-2.375C148.677,99.734,149.73,102.087,149.73,102.087z"/>
				<path style="fill:#1E0B02;" d="M132.101,109.198c0.066,0.776-0.51,1.458-1.286,1.523c-0.776,0.065-1.458-0.51-1.523-1.286
					c-0.066-0.776,0.51-1.458,1.286-1.523C131.354,107.847,132.036,108.423,132.101,109.198z"/>
				<path style="fill:#1E0B02;" d="M145.883,108.035c0.066,0.776-0.51,1.458-1.286,1.523s-1.458-0.51-1.523-1.286
					c-0.066-0.776,0.51-1.458,1.286-1.523C145.136,106.683,145.818,107.259,145.883,108.035z"/>
				
					<path style="fill:none;stroke:#000000;stroke-width:0.6612;stroke-linecap:round;stroke-linejoin:round;stroke-miterlimit:10;" d="
					M133.26,118.572c0,0,4.08,1.796,10.19-0.86"/>
			</g>
			<path style="fill:#A74B22;" d="M153.46,97.968c0,0-25.466,3.115-25.653-11.958C127.807,86.01,149.536,77.821,153.46,97.968z"/>
			<path style="fill:#A74B22;" d="M120.898,100.73c0,0,8.658-4.514,7.881-13.712C128.779,87.018,119.669,88.856,120.898,100.73z"/>
		</g>
	</g>
	<g>
		<g>
			<g>
				<polygon style="fill:#E8B499;" points="231.849,407.528 229.911,434.212 218.401,434.597 217.628,401.724 				"/>
				<g>
					<g>
						<g>
							<defs>
								<path id="XMLID_34_" d="M230.441,431.178c0,0-8.044,5.051-12.282-2.709l-31.075,16.493l48.399-0.296L230.441,431.178z"/>
							</defs>
							<use xlink:href="#XMLID_34_"  style="overflow:visible;fill:#DA4412;"/>
							<clipPath id="XMLID_00000179627508349488210690000014852268628832600462_">
								<use xlink:href="#XMLID_34_"  style="overflow:visible;"/>
							</clipPath>
						</g>
						
							<rect x="187.099" y="444.815" transform="matrix(1 -0.0061 0.0061 1 -2.7303 1.301)" style="fill:#FFFFFF;" width="48.4" height="4.232"/>
						<path style="fill:#FFFFFF;" d="M214.477,436.539c-0.129-0.053-0.246-0.139-0.336-0.255c-1.881-2.465-3.769-3.681-3.788-3.694
							c-0.372-0.237-0.473-0.716-0.224-1.071c0.248-0.355,0.758-0.442,1.124-0.215c0.087,0.054,2.138,1.367,4.204,4.072
							c0.263,0.346,0.183,0.829-0.18,1.08C215.036,436.621,214.732,436.643,214.477,436.539z"/>
						<path style="fill:#FFFFFF;" d="M210.522,438.518c-0.129-0.053-0.246-0.139-0.336-0.255c-1.881-2.465-3.769-3.681-3.788-3.694
							c-0.372-0.237-0.473-0.716-0.224-1.071c0.248-0.354,0.76-0.446,1.124-0.215c0.087,0.054,2.138,1.367,4.204,4.072
							c0.263,0.346,0.183,0.829-0.18,1.08C211.081,438.599,210.777,438.622,210.522,438.518z"/>
						<path style="fill:#FFFFFF;" d="M206.568,440.495c-0.129-0.053-0.246-0.139-0.336-0.255c-1.881-2.464-3.77-3.68-3.789-3.693
							c-0.372-0.237-0.473-0.716-0.224-1.071c0.248-0.354,0.759-0.446,1.124-0.215c0.087,0.054,2.138,1.367,4.204,4.071
							c0.264,0.345,0.183,0.829-0.18,1.08C207.127,440.577,206.823,440.599,206.568,440.495z"/>
					</g>
				</g>
			</g>
			<g>
				<polygon style="fill:#E8B499;" points="263.522,407.528 265.461,434.212 276.97,434.597 277.743,401.724 				"/>
				<g>
					<g>
						<g>
							<defs>
								<path id="XMLID_35_" d="M264.93,431.178c0,0,8.043,5.051,12.282-2.709l31.075,16.493l-48.399-0.296L264.93,431.178z"/>
							</defs>
							<use xlink:href="#XMLID_35_"  style="overflow:visible;fill:#DA4412;"/>
							<clipPath id="XMLID_00000152262604648232721480000014145927802634051483_">
								<use xlink:href="#XMLID_35_"  style="overflow:visible;"/>
							</clipPath>
						</g>
						
							<rect x="281.956" y="422.731" transform="matrix(0.0061 -1 1 0.0061 -164.5885 728.2637)" style="fill:#FFFFFF;" width="4.232" height="48.4"/>
						<path style="fill:#FFFFFF;" d="M280.894,436.539c0.129-0.053,0.246-0.139,0.336-0.255c1.881-2.465,3.769-3.681,3.788-3.694
							c0.372-0.237,0.473-0.716,0.224-1.071c-0.248-0.355-0.758-0.442-1.124-0.215c-0.087,0.054-2.138,1.367-4.204,4.072
							c-0.263,0.346-0.182,0.829,0.18,1.08C280.335,436.621,280.639,436.643,280.894,436.539z"/>
						<path style="fill:#FFFFFF;" d="M284.849,438.518c0.129-0.053,0.246-0.139,0.336-0.255c1.881-2.465,3.769-3.681,3.788-3.694
							c0.372-0.237,0.473-0.716,0.224-1.071c-0.248-0.354-0.76-0.446-1.124-0.215c-0.087,0.054-2.138,1.367-4.203,4.072
							c-0.263,0.346-0.183,0.829,0.18,1.08C284.29,438.599,284.594,438.622,284.849,438.518z"/>
						<path style="fill:#FFFFFF;" d="M288.803,440.495c0.129-0.053,0.246-0.139,0.336-0.255c1.881-2.464,3.77-3.68,3.789-3.693
							c0.372-0.237,0.473-0.716,0.224-1.071c-0.248-0.354-0.759-0.446-1.124-0.215c-0.087,0.054-2.138,1.367-4.204,4.071
							c-0.264,0.345-0.183,0.829,0.18,1.08C288.244,440.577,288.549,440.599,288.803,440.495z"/>
					</g>
				</g>
			</g>
			<g>
				<g>
					<path style="fill:#262722;" d="M277.669,233.74c0,0,3.694,23.232,3.577,104.098l2.621,83.732H258.58l-3.853-82.879
						l-5.346-74.009h-9.976V233.74H277.669z"/>
					<path style="fill:#262722;" d="M218.67,233.74c0,0-3.694,24.163-3.577,105.029l-2.621,82.801h25.287l2.884-82.879l6.316-74.009
						h9.976V233.74H218.67z"/>
					
						<line style="fill:none;stroke:#494949;stroke-width:0.9528;stroke-linecap:round;stroke-linejoin:round;stroke-miterlimit:10;" x1="236.611" y1="264.682" x2="256.003" y2="264.682"/>
				</g>
			</g>
		</g>
		<g>
			<g>
				<g>
					<g>
						<g>
							<path style="fill:#E8B499;" d="M214.729,220.895l-10.954,50.926l-7.233-0.374c0,0,2.316-31.505,5.001-52.571
								c0.426-3.342,4.733-6.069,8.03-5.376l0,0C212.663,214.15,215.375,217.806,214.729,220.895z"/>
						</g>
						<path style="fill:#E8B499;" d="M202.938,268.459c0,0,3.565,5.581,1.364,12.688l1.627,6.945
							c0.253,1.078-0.272,2.207-1.23,2.646l0,0c-1.037,0.475-2.221-0.019-2.675-1.115l-1.623-3.924l-0.171,1.501
							c-0.272,2.384,0.207,4.783,1.36,6.809l3.281,5.765c0.373,0.656,0.383,1.486,0.024,2.166v0
							c-0.693,1.314-2.381,1.485-3.247,0.328l-5.199-6.946c-2.015-2.692-2.842-6.213-2.268-9.661l3.08-18.531L202.938,268.459z"/>
					</g>
					<polygon style="fill:#E8B499;" points="201.544,218.877 207.968,175.349 222.895,180.207 214.576,221.502 					"/>
				</g>
				<path style="fill:#4E8985;" d="M224.053,157.278c0,0-10.082,1.202-15.262,14.559c-5.208,13.429-11.573,27.44-11.573,27.44
					l22.565,12.575L224.053,157.278z"/>
			</g>
			<g>
				<g>
					<g>
						<g>
							<path style="fill:#E8B499;" d="M290.68,228.221l49.288-26.844l-2.984-10.476c0,0-34.352,14.63-52.99,24.808
								c-2.957,1.615-3.927,7.589-2.079,10.407l0,0C283.646,228.755,288.038,229.949,290.68,228.221z"/>
						</g>
					</g>
					<polygon style="fill:#E8B499;" points="294.75,219.075 284.545,175.349 269.618,180.207 281.348,224.955 					"/>
				</g>
				<path style="fill:#4E8985;" d="M270.383,156.935c0,0,10.905,1.292,16.451,14.902c5.435,13.339,10.838,25.65,10.838,25.65
					l-21.745,13.473L270.383,156.935z"/>
			</g>
			<g>
				<path style="fill:#4E8985;" d="M275.444,158.973c-3.87-2.396-10.157-2.995-10.157-2.995l-17.479,1.764l-17.479-1.764
					c0,0-6.288,0.6-10.158,2.995l-0.142,40.261l-7.809,55.344l71.648,0.387l-8.22-55.008L275.444,158.973z"/>
				<g>
					<path style="fill:#E8B499;" d="M224.053,157.278l20.6-5.413h7.103l18.628,5.069l0,0c-9.526,8.93-33.171,16.25-45.266,0.759
						L224.053,157.278z"/>
					
						<polyline style="fill:none;stroke:#000000;stroke-width:0.9528;stroke-linecap:round;stroke-linejoin:round;stroke-miterlimit:10;" points="
						218.531,210.959 219.783,198.07 218.302,178.712 					"/>
					
						<polyline style="fill:none;stroke:#000000;stroke-width:0.9528;stroke-linecap:round;stroke-linejoin:round;stroke-miterlimit:10;" points="
						276.922,209.966 275.767,198.07 277.683,178.528 					"/>
				</g>
			</g>
		</g>
		<g>
			<path style="fill:#DA4412;" d="M278.408,138.732c-0.199-1.656-0.068-3.355,0.349-4.952c2.117-8.113-0.305-15.023-4.58-20.186
				c-3.868-4.671-4.832-11.581-4.832-11.581l0,0c-2.841-9.36-12.465-15.853-21.224-15.853c-8.76,0-18.354,6.119-21.194,15.479l0,0
				c0,0-1.282,7.41-4.862,11.955c-4.145,5.263-6.697,12.074-4.58,20.186c0.417,1.596,0.548,3.295,0.349,4.952
				c-0.147,1.223-0.481,2.493-1.18,3.372h62.935C278.889,141.225,278.555,139.956,278.408,138.732z"/>
			<g>
				<path style="fill:#E8B499;" d="M237.21,120.925c0.096,3.401-2.583,6.236-5.985,6.333c-3.401,0.096-6.237-2.583-6.333-5.984
					c-0.096-3.401,2.583-6.237,5.984-6.333C234.278,114.844,237.114,117.524,237.21,120.925z"/>
				
					<path style="fill:none;stroke:#C47268;stroke-width:0.6887;stroke-linecap:round;stroke-linejoin:round;stroke-miterlimit:10;" d="
					M227.553,120.233c0,0,2.45-1.193,4.785,3.063"/>
			</g>
			<g>
				<circle style="fill:#E8B499;" cx="265.865" cy="121.099" r="6.161"/>
				
					<path style="fill:none;stroke:#C47268;stroke-width:0.6887;stroke-linecap:round;stroke-linejoin:round;stroke-miterlimit:10;" d="
					M269.337,120.135c0,0-2.482-1.124-4.696,3.197"/>
			</g>
			
				<ellipse transform="matrix(0.2317 -0.9728 0.9728 0.2317 84.3733 325.5604)" style="fill:#DA4412;" cx="248.285" cy="109.367" rx="19.35" ry="19.35"/>
			<g>
				<path style="fill:#E8B499;" d="M254.409,133.397c0,0-2.666,2.447-5.097,3.048c-2.431,0.601-4.798-1.24-4.828-1.262
					c-0.03-0.022-2.843-2.13-2.843-2.13l-1.14,20.277l0.315,0.338c4.129,4.434,10.074,4.495,14.238,0.147l0.609-0.636
					L254.409,133.397z"/>
			</g>
			<path style="fill:#1E0B02;" d="M239.721,130.374c0,0,3.42,11.849,9.523,11.733c5.017-0.096,6.41-11.144,6.41-11.144
				L239.721,130.374z"/>
			<path style="fill:#E8B499;" d="M265.09,109.579c0.034,6.665-0.932,12.422-1.904,16.509c-0.952,4.002-3.674,6.808-7.529,9.076
				l-0.702,0.413c-4.079,2.399-9.364,2.482-13.529,0.21h0c-4.201-2.291-7.149-5.324-8.073-9.608
				c-1.681-7.792-1.904-16.431-1.904-16.431s-1.405-18.029,16.74-17.794C266.332,92.191,265.09,109.579,265.09,109.579z"/>
			<g>
				<g>
					
						<polyline style="fill:none;stroke:#C47268;stroke-width:0.6887;stroke-linecap:round;stroke-linejoin:round;stroke-miterlimit:10;" points="
						246.81,119.453 246.81,122.093 248.59,122.093 					"/>
					<path d="M234.486,109.43l9.593-0.865c0,0-0.859-2.486-4.738-2.083C235.373,106.895,234.486,109.43,234.486,109.43z"/>
					<path d="M260.857,109.43l-9.593-0.865c0,0,0.859-2.486,4.738-2.083C259.971,106.895,260.857,109.43,260.857,109.43z"/>
					<path style="fill:#FFFFFF;" d="M242.462,124.528h10.475c0,0-0.402,2.732-5.425,2.732
						C243.389,127.26,242.462,124.528,242.462,124.528z"/>
					
						<path style="fill:none;stroke:#1E0B02;stroke-width:0.9565;stroke-linecap:round;stroke-linejoin:round;stroke-miterlimit:10;" d="
						M242.95,115.899c0,0-2.482-2.03-4.66,0"/>
					
						<path style="fill:none;stroke:#1E0B02;stroke-width:0.9565;stroke-linecap:round;stroke-linejoin:round;stroke-miterlimit:10;" d="
						M256.971,115.899c0,0-1.944-2.082-4.542,0"/>
				</g>
				<g>
					<path style="opacity:0.23;fill:#FFFFFF;" d="M238.3,109.267l7.031,9.546c0,0-2.121,4.054-5.499,3.603l-7.097-9.313
						C232.736,113.103,234.655,109.009,238.3,109.267z"/>
					<path style="opacity:0.23;fill:#FFFFFF;" d="M255.595,109.267l7.031,9.546c0,0-2.121,4.054-5.499,3.603l-7.097-9.313
						C250.031,113.103,251.949,109.009,255.595,109.267z"/>
					<path style="fill:none;stroke:#FFFFFF;stroke-width:0.4927;stroke-miterlimit:10;" d="M245.89,115.899
						c0,3.797-3.078,6.875-6.875,6.875c-3.797,0-6.875-3.078-6.875-6.875c0-3.797,3.078-6.875,6.875-6.875
						C242.812,109.024,245.89,112.102,245.89,115.899z"/>
					<path style="fill:none;stroke:#FFFFFF;stroke-width:0.4927;stroke-miterlimit:10;" d="M263.204,115.899
						c0,3.797-3.078,6.875-6.875,6.875c-3.797,0-6.875-3.078-6.875-6.875c0-3.797,3.078-6.875,6.875-6.875
						C260.126,109.024,263.204,112.102,263.204,115.899z"/>
					<path style="fill:none;stroke:#FFFFFF;stroke-width:0.4927;stroke-miterlimit:10;" d="M245.89,115.899c0,0,1.964-0.723,3.563,0
						"/>
				</g>
			</g>
			<path style="fill:#DA4412;" d="M229.701,105.482c0,0,16.174-3.079,19.513-15.151C249.213,90.331,232.007,84.226,229.701,105.482z
				"/>
			<path style="fill:#DA4412;" d="M265.09,105.482c0,0-16.173-3.079-19.513-15.151C245.577,90.331,262.783,84.226,265.09,105.482z"
				/>
		</g>
	</g>
	<g>
		<g>
			<g>
				<g>
					<g>
						<polygon style="fill:#A74B22;" points="471.874,425.459 453.854,425.459 424.053,441.401 475.295,440.79 						"/>
						<g>
							<path style="fill:#1E0B02;" d="M462.727,444.467c1.692,0,3.061,1.415,3.096,3.172l9.65-0.105l-0.178-6.743l-51.241,0.611
								l0.178,6.743l35.393-0.43v-0.01C459.625,445.917,461.014,444.467,462.727,444.467z"/>
						</g>
						
							<line style="fill:none;stroke:#4E8985;stroke-width:1.9384;stroke-linecap:round;stroke-linejoin:round;stroke-miterlimit:10;" x1="441.4" y1="431.331" x2="447.303" y2="432.944"/>
						
							<line style="fill:none;stroke:#4E8985;stroke-width:1.9384;stroke-linecap:round;stroke-linejoin:round;stroke-miterlimit:10;" x1="447.171" y1="428.369" x2="453.075" y2="429.983"/>
					</g>
					<rect x="453.507" y="400.054" style="fill:#E6A9A0;" width="18.367" height="25.406"/>
				</g>
				<g>
					<g>
						<polygon style="fill:#A74B22;" points="504.337,425.459 522.357,425.459 552.158,441.401 500.917,440.79 						"/>
						<g>
							<path style="fill:#1E0B02;" d="M513.485,444.467c-1.692,0-3.061,1.415-3.096,3.172l-9.65-0.105l0.178-6.743l51.241,0.611
								l-0.178,6.743l-35.393-0.43v-0.01C516.587,445.917,515.198,444.467,513.485,444.467z"/>
						</g>
						
							<line style="fill:none;stroke:#4E8985;stroke-width:1.9384;stroke-linecap:round;stroke-linejoin:round;stroke-miterlimit:10;" x1="534.812" y1="431.331" x2="529.825" y2="433.861"/>
						
							<line style="fill:none;stroke:#4E8985;stroke-width:1.9384;stroke-linecap:round;stroke-linejoin:round;stroke-miterlimit:10;" x1="529.041" y1="428.369" x2="524.971" y2="429.983"/>
					</g>
					<polygon style="fill:#E6A9A0;" points="520.74,400.054 502.373,400.054 504.337,425.459 522.705,425.459 					"/>
				</g>
				<g>
					<path style="fill:#4E8985;" d="M514.251,208.357c1.38,14.734,12.423,209.774,12.423,209.774h-28.674l-12.566-173.243
						l-5.165,0.098l-3.342,173.145h-27.396c0,0-1.563-180.966,0.108-209.314L514.251,208.357z"/>
					
						<line style="fill:none;stroke:#000000;stroke-width:0.9528;stroke-linecap:round;stroke-linejoin:round;stroke-miterlimit:10;" x1="473.027" y1="245.017" x2="494.038" y2="245.017"/>
				</g>
			</g>
			<g>
				<path style="fill:#A74B22;" d="M470.792,48.833c0,0,7.942-10.747,22.014-3.576c15.428,7.862,7.091,24.809,7.091,24.809
					l-33.155-6.281L470.792,48.833z"/>
				<path style="fill:#A74B22;" d="M464.161,70.149c0,0-8.673-17.03,6.632-21.316l2.751,9.135L464.161,70.149z"/>
				<g>
					<path style="fill:#E8B499;" d="M471.514,78.008c0.096,3.401-2.583,6.237-5.985,6.333c-3.401,0.096-6.237-2.583-6.333-5.985
						c-0.096-3.401,2.583-6.237,5.984-6.333C468.583,71.928,471.418,74.607,471.514,78.008z"/>
					
						<path style="fill:none;stroke:#C47268;stroke-width:0.6887;stroke-linecap:round;stroke-linejoin:round;stroke-miterlimit:10;" d="
						M461.858,77.316c0,0,2.45-1.193,4.785,3.063"/>
				</g>
				<g>
					<path style="fill:#E8B499;" d="M494.008,78.182c0,3.403,2.758,6.161,6.161,6.161c3.403,0,6.161-2.758,6.161-6.161
						c0-3.403-2.758-6.161-6.161-6.161C496.767,72.021,494.008,74.78,494.008,78.182z"/>
					
						<path style="fill:none;stroke:#C47268;stroke-width:0.6887;stroke-linecap:round;stroke-linejoin:round;stroke-miterlimit:10;" d="
						M503.641,77.218c0,0-2.483-1.124-4.696,3.197"/>
				</g>
				<g>
					<path style="fill:#E8B499;" d="M490.666,92.379c0,0-3.474,2.451-6.639,3.056c-3.165,0.605-6.243-1.232-6.282-1.255
						c-0.039-0.022-3.696-2.126-3.696-2.126l-1.514,20.279l0.41,0.338c5.367,4.427,13.104,4.48,18.531,0.126l0.794-0.637
						L490.666,92.379z"/>
				</g>
				<path style="fill:#1E0B02;" d="M472.535,89.922c0,0,3.452,11.3,11.396,11.175c6.53-0.103,7.583-11.175,7.583-11.175H472.535z"/>
				<path style="fill:#E8B499;" d="M499.398,67.457c0.035,6.964-0.929,12.979-1.901,17.249c-0.951,4.181-4.629,7.113-8.483,9.481
					l-0.702,0.431c-4.078,2.506-7.45,2.591-11.616,0.217l0,0c-4.201-2.394-8.107-5.564-9.032-10.041
					c-1.683-8.142-1.908-17.168-1.908-17.168s-2.365-18.838,15.779-18.588C499.681,49.289,499.398,67.457,499.398,67.457z"/>
				<g>
					<path style="fill:#1E0B02;" d="M476.219,72.982c0,0.811-0.657,1.468-1.468,1.468c-0.811,0-1.468-0.657-1.468-1.468
						c0-0.811,0.658-1.468,1.468-1.468C475.561,71.514,476.219,72.171,476.219,72.982z"/>
					<path style="fill:#1E0B02;" d="M490.625,72.982c0,0.811-0.657,1.468-1.468,1.468c-0.811,0-1.468-0.657-1.468-1.468
						c0-0.811,0.658-1.468,1.468-1.468C489.968,71.514,490.625,72.171,490.625,72.982z"/>
					
						<polyline style="fill:none;stroke:#C47268;stroke-width:0.6887;stroke-linecap:round;stroke-linejoin:round;stroke-miterlimit:10;" points="
						480.622,76.823 480.622,79.176 482.527,79.176 					"/>
					<path d="M469.28,66.776l9.593-0.865c0,0-0.859-2.486-4.738-2.083C470.167,64.242,469.28,66.776,469.28,66.776z"/>
					<path d="M494.008,66.776l-9.594-0.865c0,0,0.859-2.486,4.738-2.083C493.121,64.242,494.008,66.776,494.008,66.776z"/>
					<path style="fill:#FFFFFF;" d="M477.338,82.53h9.464c0,0-0.445,2.899-4.872,2.899C477.502,85.429,477.338,82.53,477.338,82.53z
						"/>
				</g>
				<g>
					<path style="fill:#A74B22;" d="M466.374,76.541c0,0,0.711-23.074,0.416-23.731C466.79,52.81,458.609,60.369,466.374,76.541z"/>
					<path style="fill:#A74B22;" d="M498.714,76.378l-1.228-25.054C497.486,51.324,505.353,59.14,498.714,76.378z"/>
				</g>
				<path style="fill:#A74B22;" d="M473.966,50.766c0,0-5.629,1.525-5.437,7.052c0.192,5.527-3.546,10.959-3.546,10.959
					l-1.707-5.523C463.276,63.254,461.958,52.961,473.966,50.766z"/>
				<path style="fill:#A74B22;" d="M472.546,51.223c0,0,4.215-2.391,8.399,2.87c3.573,4.493,12.995,9.12,18.573,4.716
					c0,0-3.553-12.717-17.416-12.458C468.239,46.61,472.546,51.223,472.546,51.223z"/>
			</g>
			<g>
				<path style="fill:#EEC86A;" d="M452.911,120.032c-27.945,13.992-50.966,40.04-50.966,40.04l15,18.069l42.249-26.841
					L452.911,120.032z"/>
				<g>
					<g>
						<g>
							<polygon style="fill:#E8B499;" points="528.879,227.869 537.288,249.303 543.786,248.613 538.857,220.887 							"/>
						</g>
						<path style="fill:#E8B499;" d="M536.972,245.927c0,0-3.334,6.007-0.6,13.226l-1.24,7.296
							c-0.193,1.133,0.423,2.268,1.443,2.661l0,0c1.104,0.426,2.299-0.161,2.699-1.326l1.43-4.167l0.273,1.544
							c0.434,2.451,0.091,4.966-0.973,7.138l-3.029,6.18c-0.345,0.703-0.301,1.563,0.113,2.244l0,0
							c0.802,1.317,2.561,1.386,3.384,0.132l4.939-7.526c1.914-2.916,2.545-6.615,1.731-10.15l-4.375-18.992L536.972,245.927z"/>
					</g>
					<path style="fill:#EEC86A;" d="M509.535,119.197c0,0,9.84,2.476,15.081,17.254c10.5,29.605,21.388,108.927,21.388,108.927
						l-18.796,3.543l-26.354-101.62L509.535,119.197z"/>
				</g>
				<g>
					<g>
						<g>
							<path style="fill:#EEC86A;" d="M503.397,116.466l8.429,3.75c3.414,1.519,5.618,4.9,5.63,8.636l0.299,91.451h-70.66V128.78
								c0-3.821,2.293-7.269,5.817-8.747l8.603-3.609L503.397,116.466z"/>
						</g>
						<g>
							<path style="fill:#E8B499;" d="M482.957,107.606l20.439,8.86c0,0-21,18.978-41.882-0.042L482.957,107.606z"/>
							<path style="fill:none;stroke:#FFFFFF;stroke-width:1.9384;stroke-miterlimit:10;" d="M461.514,116.424
								c0,0,7.276,8.609,20.888,8.609s20.994-8.566,20.994-8.566"/>
						</g>
					</g>
					
						<line style="fill:none;stroke:#000000;stroke-width:0.9528;stroke-linecap:round;stroke-linejoin:round;stroke-miterlimit:10;" x1="517.72" y1="209.885" x2="517.521" y2="149.087"/>
					
						<line style="fill:none;stroke:#000000;stroke-width:0.9528;stroke-linecap:round;stroke-linejoin:round;stroke-miterlimit:10;" x1="447.094" y1="158.987" x2="447.094" y2="148.786"/>
				</g>
			</g>
		</g>
		<g>
			<g>
				<path style="fill:#1E0B02;" d="M370.978,74.832c0,0,9.079-4.046,12.298,3.604c3.098,7.365-9.207,14.383-9.207,14.383
					L370.978,74.832z"/>
				<g>
					<path style="fill:#C67D69;" d="M353.997,105.366c0.096,3.401-2.583,6.237-5.984,6.333c-3.401,0.096-6.237-2.583-6.333-5.984
						c-0.096-3.401,2.583-6.237,5.984-6.333S353.901,101.965,353.997,105.366z"/>
					
						<path style="fill:none;stroke:#A8523F;stroke-width:0.7482;stroke-linecap:round;stroke-linejoin:round;stroke-miterlimit:10;" d="
						M344.341,104.674c0,0,2.45-1.193,4.785,3.063"/>
				</g>
				<g>
					<circle style="fill:#C67D69;" cx="382.653" cy="105.54" r="6.161"/>
					
						<path style="fill:none;stroke:#A8523F;stroke-width:0.7482;stroke-linecap:round;stroke-linejoin:round;stroke-miterlimit:10;" d="
						M386.125,104.576c0,0-2.483-1.123-4.696,3.197"/>
				</g>
				<g>
					<path style="fill:#C67D69;" d="M373.15,119.737c0,0-3.474,2.451-6.639,3.056c-3.165,0.605-6.243-1.232-6.282-1.255
						s-3.696-2.126-3.696-2.126l-1.514,20.279l0.41,0.338c5.367,4.427,13.104,4.48,18.531,0.126l0.794-0.637L373.15,119.737z"/>
				</g>
				<path style="fill:#1E0B02;" d="M355.018,117.28c0,0,3.452,11.3,11.396,11.175c6.53-0.103,7.583-11.175,7.583-11.175H355.018z"/>
				<path style="fill:#C67D69;" d="M381.882,94.815c0.035,6.964-0.929,12.979-1.901,17.249c-0.951,4.181-3.672,7.113-7.527,9.482
					l-0.702,0.431c-4.078,2.506-9.363,2.591-13.529,0.217l0,0c-4.201-2.394-7.15-5.564-8.076-10.041
					c-1.683-8.142-1.908-17.168-1.908-17.168s-2.365-18.838,15.779-18.588C382.164,76.647,381.882,94.815,381.882,94.815z"/>
				<g>
					<circle style="fill:#1E0B02;" cx="357.234" cy="100.34" r="1.468"/>
					<circle style="fill:#1E0B02;" cx="371.64" cy="100.34" r="1.468"/>
					
						<polyline style="fill:none;stroke:#A8523F;stroke-width:0.7482;stroke-linecap:round;stroke-linejoin:round;stroke-miterlimit:10;" points="
						363.105,102.484 363.105,106.534 365.721,106.534 					"/>
					<path d="M351.763,94.134l9.594-0.865c0,0-0.859-2.486-4.738-2.083C352.65,91.599,351.763,94.134,351.763,94.134z"/>
					<path d="M376.492,94.134l-9.593-0.865c0,0,0.859-2.486,4.738-2.083C375.605,91.599,376.492,94.134,376.492,94.134z"/>
					<path style="fill:#FFFFFF;" d="M359.822,109.888h9.464c0,0-0.445,2.899-4.872,2.899
						C359.986,112.787,359.822,109.888,359.822,109.888z"/>
				</g>
				<g>
					<path style="fill:#1E0B02;" d="M348.857,103.899c0,0,2.686-20.374,1.372-23.731C350.23,80.168,341.092,87.727,348.857,103.899z
						"/>
					<path style="fill:#1E0B02;" d="M381.197,103.736c0,0-3.023-19.456-2.185-25.054C379.012,78.682,387.836,86.498,381.197,103.736
						z"/>
				</g>
				<path style="fill:#1E0B02;" d="M378.381,77.295l-8.366-1.265l-0.737-1.447l-4.415,0.668l-4.415-0.668l-0.737,1.447l-8.366,1.265
					l-1.116,4.476l0.275,5.16c0,0,1.324-5.853,5.934-4.687c1.087,0.275,2.388,0.73,3.91,1.037c1.421,0.31,2.776,0.45,4.053,0.472
					c0.151,0.004,0.308,0,0.461,0.001c0.154-0.001,0.31,0.003,0.461-0.001c1.278-0.022,2.632-0.162,4.053-0.472
					c1.521-0.307,2.851-0.669,3.91-1.037c4.273-1.487,5.847,4.42,5.847,4.42l0.362-4.893L378.381,77.295z"/>
				<path style="fill:#1E0B02;" d="M378.214,82.387c0,0-5.441,4.855-12.412,1.125c0,0-17.734,10.925-22.74-0.968
					c-4.173-9.915,13.15-23.37,31.023-8.208L378.214,82.387z"/>
			</g>
			<g>
				<g>
					<polygon style="fill:#C67D69;" points="386.404,393.642 389.273,429.316 405.042,429.812 405.081,387.503 					"/>
					<g>
						<g>
							<g>
								<defs>
									<path id="XMLID_30_" d="M388.97,425.539c0,0,10.929,6.373,16.384-3.613l39.994,21.227l-62.29-0.381L388.97,425.539z"/>
								</defs>
								<use xlink:href="#XMLID_30_"  style="overflow:visible;fill:#101010;"/>
								<clipPath id="XMLID_00000096739284081342700180000017829605602901235625_">
									<use xlink:href="#XMLID_30_"  style="overflow:visible;"/>
								</clipPath>
								<path style="clip-path:url(#XMLID_00000096739284081342700180000017829605602901235625_);fill:#FFFFFF;" d="
									M438.223,430.503c0,0-15.376,2.3-14.193,21.421l26.612-7.294L438.223,430.503z"/>
							</g>
							
								<rect x="411.46" y="414.54" transform="matrix(0.0061 -1 1 0.0061 -34.0273 857.1353)" style="fill:#FFFFFF;" width="5.447" height="62.292"/>
							<path style="fill:#FFFFFF;" d="M410.093,432.311c0.167-0.068,0.317-0.179,0.432-0.329c2.42-3.172,4.851-4.738,4.875-4.754
								c0.479-0.305,0.609-0.922,0.288-1.379c-0.319-0.458-0.975-0.569-1.446-0.277c-0.112,0.07-2.752,1.759-5.41,5.24
								c-0.339,0.445-0.235,1.067,0.232,1.39C409.373,432.416,409.765,432.445,410.093,432.311z"/>
							<path style="fill:#FFFFFF;" d="M415.183,434.858c0.166-0.068,0.317-0.179,0.432-0.329c2.42-3.172,4.851-4.738,4.875-4.754
								c0.479-0.305,0.609-0.922,0.288-1.379c-0.319-0.456-0.978-0.574-1.446-0.277c-0.112,0.07-2.752,1.759-5.41,5.24
								c-0.339,0.445-0.235,1.067,0.232,1.39C414.463,434.963,414.855,434.991,415.183,434.858z"/>
							<path style="fill:#FFFFFF;" d="M420.272,437.403c0.167-0.068,0.317-0.179,0.432-0.329c2.421-3.171,4.852-4.737,4.876-4.752
								c0.479-0.305,0.609-0.922,0.288-1.379c-0.319-0.456-0.976-0.574-1.446-0.277c-0.112,0.07-2.752,1.759-5.411,5.239
								c-0.339,0.444-0.235,1.067,0.232,1.39C419.553,437.508,419.945,437.537,420.272,437.403z"/>
						</g>
					</g>
				</g>
				<g>
					<polygon style="fill:#C67D69;" points="350.304,393.642 351.26,429.316 335.491,429.812 331.627,387.503 					"/>
					<g>
						<g>
							<g>
								<defs>
									<path id="XMLID_31_" d="M351.291,425.539c0,0-10.93,6.373-16.385-3.613l-39.993,21.227l62.29-0.381L351.291,425.539z"/>
								</defs>
								<use xlink:href="#XMLID_31_"  style="overflow:visible;fill:#101010;"/>
								<clipPath id="XMLID_00000136413089979667918620000001199590312668569475_">
									<use xlink:href="#XMLID_31_"  style="overflow:visible;"/>
								</clipPath>
								<path style="clip-path:url(#XMLID_00000136413089979667918620000001199590312668569475_);fill:#FFFFFF;" d="
									M302.037,430.503c0,0,15.376,2.3,14.193,21.421l-26.612-7.294L302.037,430.503z"/>
							</g>
							
								<rect x="294.931" y="442.962" transform="matrix(1 -0.0061 0.0061 1 -2.7199 2.0028)" style="fill:#FFFFFF;" width="62.292" height="5.447"/>
							<path style="fill:#FFFFFF;" d="M330.168,432.311c-0.167-0.068-0.317-0.179-0.432-0.329c-2.42-3.172-4.851-4.738-4.875-4.754
								c-0.479-0.305-0.609-0.922-0.288-1.379c0.319-0.458,0.975-0.569,1.446-0.277c0.113,0.07,2.752,1.759,5.41,5.24
								c0.339,0.445,0.235,1.067-0.232,1.39C330.887,432.416,330.495,432.445,330.168,432.311z"/>
							<path style="fill:#FFFFFF;" d="M325.078,434.858c-0.166-0.068-0.317-0.179-0.432-0.329c-2.42-3.172-4.851-4.738-4.875-4.754
								c-0.479-0.305-0.609-0.922-0.288-1.379c0.319-0.456,0.978-0.574,1.446-0.277c0.112,0.07,2.752,1.759,5.41,5.24
								c0.339,0.445,0.235,1.067-0.232,1.39C325.797,434.963,325.405,434.991,325.078,434.858z"/>
							<path style="fill:#FFFFFF;" d="M319.988,437.403c-0.167-0.068-0.317-0.179-0.432-0.329c-2.421-3.171-4.852-4.737-4.876-4.752
								c-0.479-0.305-0.609-0.922-0.288-1.379c0.319-0.456,0.976-0.574,1.446-0.277c0.112,0.07,2.752,1.759,5.411,5.239
								c0.339,0.444,0.235,1.067-0.232,1.39C320.708,437.508,320.316,437.537,319.988,437.403z"/>
						</g>
					</g>
				</g>
				<g>
					<g>
						<path style="fill:#7B97FB;" d="M367.577,256.092l14.002,154.952h27.836L398.92,225.805l-34.53-3.053l-28.574-1.413
							l-11.547,98.119c-0.935,8.97,6.205,16.73,15.222,16.541h0c7.082-0.148,13.094-5.233,14.414-12.192L367.577,256.092z"/>
					</g>
					
						<line style="fill:none;stroke:#000000;stroke-width:0.9528;stroke-linecap:round;stroke-linejoin:round;stroke-miterlimit:10;" x1="355.134" y1="254.577" x2="373.061" y2="256.857"/>
					<polygon style="fill:#A1B9FC;" points="415.016,413.757 378.321,413.757 376.551,397.13 413.246,397.13 					"/>
					<polygon style="fill:#7B97FB;" points="353.905,323.807 355.614,408.657 326.24,408.657 324.269,319.458 					"/>
					<rect x="322.479" y="397.13" style="fill:#A1B9FC;" width="36.695" height="16.627"/>
				</g>
			</g>
			<g>
				<g>
					<g>
						<path style="fill:#E180A0;" d="M395.554,147.722l-20.801-8.204l-19.734,0.173L329,151.865
							c-2.039,1.221-1.655,3.691-0.915,5.95l5.884,69.541l65.254-0.898l4.252-70.656
							C404.033,153.478,397.704,148.765,395.554,147.722z"/>
					</g>
					<path style="fill:#C67D69;" d="M355.018,139.692l-5.813,2.671c0,0-0.063,9.745,15.733,9.24
						c16.197-0.518,16.161-9.697,16.161-9.697l-6.347-2.388L355.018,139.692z"/>
				</g>
				<g>
					<g>
						<polygon style="fill:#C67D69;" points="429.878,191.167 386.009,170.221 407.76,157.278 427.241,169.343 						"/>
						<g>
							<path style="fill:#C67D69;" d="M421.738,122.887l8.488-3.053l15.034,59.241c2.111,6.343-2.228,13.001-8.883,13.632l0,0
								c-5.533,0.525-10.501-3.396-11.276-8.9L421.738,122.887z"/>
							<g>
								<path style="fill:#C67D69;" d="M421.738,122.887l-4.048-4.469c-2.113-2.332-3.647-5.129-4.481-8.163l-1.467-5.342
									c-0.349-1.27,0.527-2.548,1.837-2.681l0,0c1.106-0.112,2.169,0.459,2.686,1.443l2.735,5.206l0.762-23.013
									c0.012-0.993,0.893-1.75,1.877-1.612l0.66,0.092c0.777,0.109,1.369,0.75,1.416,1.533l-0.024,13.642l2.195-15.667
									c0.077-0.987,0.999-1.684,1.97-1.488l0.48,0.097c0.816,0.165,1.381,0.912,1.317,1.742l-1.801,16.368l3.849-12.812
									c0.279-1.015,1.426-1.512,2.357-1.021l0.188,0.099c0.639,0.336,0.984,1.049,0.852,1.759l-2.563,13.804l2.626-8.134
									c0.373-1.156,1.827-1.525,2.706-0.686l0,0c0.418,0.399,0.597,0.988,0.471,1.552l-6.817,30.511L421.738,122.887z"/>
								
									<path style="fill:none;stroke:#A8523F;stroke-width:0.7482;stroke-linecap:round;stroke-linejoin:round;stroke-miterlimit:10;" d="
									M419.001,108.881c0,0,4.445,1.029,6.767,6.245"/>
							</g>
							
								<line style="fill:none;stroke:#A8523F;stroke-width:0.7482;stroke-linecap:round;stroke-linejoin:round;stroke-miterlimit:10;" x1="424.12" y1="168.329" x2="425.022" y2="179.613"/>
						</g>
					</g>
					<g>
						<path style="fill:#E180A0;" d="M392.651,146.736c16.275,4.938,27.535,18.237,27.535,18.237l-12.242,24.293l-28.098-13.038
							L392.651,146.736z"/>
						
							<line style="fill:none;stroke:#000000;stroke-width:0.9528;stroke-linecap:round;stroke-linejoin:round;stroke-miterlimit:10;" x1="401.638" y1="186.34" x2="393.653" y2="182.636"/>
					</g>
				</g>
				<g>
					<g>
						<g>
							<g>
								<path style="fill:#C67D69;" d="M316.213,174.398l-9.896,35.642c-1.125,5.667,5.576,12.094,11.013,13.536l0,0
									c5.37,1.424,4.235-2.785,5.642-8.3l13.485-33.719L316.213,174.398z"/>
							</g>
							<g>
								<g>
									<path style="fill:#C67D69;" d="M307.275,214.17c1.754,7.277,24.75,23.339,24.75,23.339l13.182,0.116l-23.919-33.047
										L307.275,214.17z"/>
								</g>
								<path style="fill:#C67D69;" d="M349.294,241.118c0,0,3.36,1.688,6.664,1.016c1.823-0.371,2.149-2.848,0.495-3.699
									c-4.307-2.215-13.373-7.394-16.947-8.686l-6.222-1.734l-5.861,5.824l4.601,3.669c0,0,1.106,5.825,3.354,7.807
									C335.379,245.316,345.115,246.829,349.294,241.118z"/>
							</g>
							
								<line style="fill:none;stroke:#A8523F;stroke-width:0.7482;stroke-linecap:round;stroke-linejoin:round;stroke-miterlimit:10;" x1="325.128" y1="209.885" x2="321.287" y2="204.577"/>
						</g>
						<g>
							<path style="fill:#E180A0;" d="M329,151.865c0,0-16.405,5.479-19.785,34.608l32.463,9.666l9.032-28.165L329,151.865z"/>
							
								<line style="fill:none;stroke:#000000;stroke-width:0.9528;stroke-linecap:round;stroke-linejoin:round;stroke-miterlimit:10;" x1="331.422" y1="193.711" x2="329.962" y2="177.528"/>
						</g>
					</g>
					<path style="fill:#E8B499;" d="M341.564,146.004c0,0-3.309,1.77-0.714,6.91l0,0c1.475,2.921,0.504,6.483-2.248,8.252
						l-5.723,3.678c-3.193,2.052-7.497,0.902-9.167-2.507c-1.125-2.295-1.836-4.912-0.983-7.154
						C324.786,149.78,336.86,143.578,341.564,146.004z"/>
				</g>
			</g>
		</g>
	</g>
	<g>
		<g>
			<g>
				<g>
					<polygon style="fill:#CF7C6C;" points="609.856,408.845 609.856,433.591 621.365,433.975 622.138,401.102 					"/>
					<g>
						<g>
							<g>
								<defs>
									<path id="XMLID_32_" d="M609.325,430.557c0,0,8.044,5.051,12.282-2.709l31.075,16.493l-48.399-0.296L609.325,430.557z"/>
								</defs>
								<use xlink:href="#XMLID_32_"  style="overflow:visible;fill:#101010;"/>
								<clipPath id="XMLID_00000127727625353115918160000007677201738602299025_">
									<use xlink:href="#XMLID_32_"  style="overflow:visible;"/>
								</clipPath>
								<path style="clip-path:url(#XMLID_00000127727625353115918160000007677201738602299025_);fill:#FFFFFF;" d="
									M647.146,434.512c0,0-11.947,1.787-11.028,16.644l20.677-5.667L647.146,434.512z"/>
							</g>
							
								<rect x="626.352" y="422.109" transform="matrix(0.0061 -1 1 0.0061 178.3218 1072.0348)" style="fill:#FFFFFF;" width="4.232" height="48.4"/>
							<path style="fill:#FFFFFF;" d="M625.289,435.917c0.129-0.053,0.246-0.139,0.336-0.255c1.881-2.465,3.769-3.681,3.788-3.694
								c0.372-0.237,0.473-0.716,0.224-1.071c-0.248-0.355-0.758-0.442-1.124-0.215c-0.087,0.054-2.138,1.367-4.204,4.072
								c-0.263,0.346-0.182,0.829,0.18,1.08C624.73,435.999,625.035,436.022,625.289,435.917z"/>
							<path style="fill:#FFFFFF;" d="M629.244,437.896c0.129-0.053,0.246-0.139,0.336-0.255c1.881-2.465,3.769-3.681,3.788-3.693
								c0.372-0.237,0.473-0.716,0.224-1.071c-0.248-0.354-0.76-0.446-1.124-0.215c-0.087,0.054-2.138,1.367-4.204,4.072
								c-0.263,0.346-0.182,0.829,0.18,1.08C628.685,437.978,628.99,438,629.244,437.896z"/>
							<path style="fill:#FFFFFF;" d="M633.199,439.874c0.129-0.053,0.246-0.139,0.336-0.255c1.881-2.464,3.77-3.68,3.789-3.692
								c0.372-0.237,0.473-0.716,0.224-1.071c-0.248-0.354-0.759-0.446-1.124-0.215c-0.087,0.054-2.138,1.367-4.204,4.071
								c-0.264,0.345-0.182,0.829,0.18,1.08C632.64,439.955,632.944,439.978,633.199,439.874z"/>
						</g>
					</g>
				</g>
				<g>
					<path style="fill:#DA4412;" d="M615.972,221.339c0,0,20.554,24.362,13.935,89.479l-5.292,108.624h-16.701L596.95,221.339
						H615.972z"/>
				</g>
			</g>
			<g>
				<g>
					<polygon style="fill:#CF7C6C;" points="586.748,408.845 586.748,433.591 575.239,433.975 574.466,401.102 					"/>
					<g>
						<g>
							<g>
								<defs>
									<path id="XMLID_33_" d="M587.279,430.557c0,0-8.044,5.051-12.282-2.709l-31.075,16.493l48.399-0.296L587.279,430.557z"/>
								</defs>
								<use xlink:href="#XMLID_33_"  style="overflow:visible;fill:#101010;"/>
								<clipPath id="XMLID_00000096048222750967224370000012950120735225546410_">
									<use xlink:href="#XMLID_33_"  style="overflow:visible;"/>
								</clipPath>
								<path style="clip-path:url(#XMLID_00000096048222750967224370000012950120735225546410_);fill:#FFFFFF;" d="
									M549.458,434.512c0,0,11.947,1.787,11.028,16.644l-20.677-5.667L549.458,434.512z"/>
							</g>
							
								<rect x="543.936" y="444.193" transform="matrix(1 -0.0061 0.0061 1 -2.7198 3.4841)" style="fill:#FFFFFF;" width="48.4" height="4.232"/>
							<path style="fill:#FFFFFF;" d="M571.315,435.917c-0.129-0.053-0.246-0.139-0.336-0.255c-1.881-2.465-3.769-3.681-3.788-3.694
								c-0.372-0.237-0.473-0.716-0.224-1.071c0.248-0.355,0.758-0.442,1.124-0.215c0.087,0.054,2.138,1.367,4.203,4.072
								c0.263,0.346,0.182,0.829-0.18,1.08C571.873,435.999,571.569,436.022,571.315,435.917z"/>
							<path style="fill:#FFFFFF;" d="M567.36,437.896c-0.129-0.053-0.246-0.139-0.336-0.255c-1.881-2.465-3.769-3.681-3.788-3.693
								c-0.372-0.237-0.473-0.716-0.224-1.071c0.248-0.354,0.76-0.446,1.124-0.215c0.087,0.054,2.138,1.367,4.204,4.072
								c0.263,0.346,0.182,0.829-0.18,1.08C567.919,437.978,567.614,438,567.36,437.896z"/>
							<path style="fill:#FFFFFF;" d="M563.405,439.874c-0.129-0.053-0.246-0.139-0.336-0.255c-1.881-2.464-3.77-3.68-3.789-3.692
								c-0.372-0.237-0.473-0.716-0.224-1.071c0.248-0.354,0.759-0.446,1.124-0.215c0.087,0.054,2.138,1.367,4.204,4.071
								c0.264,0.345,0.182,0.829-0.18,1.08C563.964,439.955,563.66,439.978,563.405,439.874z"/>
						</g>
					</g>
				</g>
				<path style="fill:#DA4412;" d="M579.479,221.339c0,0-20.554,24.362-13.935,89.479l5.292,108.624h18.531l9.134-198.102H579.479z"
					/>
			</g>
			<g>
				<rect x="580.953" y="234.643" style="fill:#DA4412;" width="32.115" height="32.115"/>
				
					<line style="fill:none;stroke:#000000;stroke-width:0.9528;stroke-linecap:round;stroke-linejoin:round;stroke-miterlimit:10;" x1="601.705" y1="266.758" x2="586.889" y2="265.844"/>
			</g>
		</g>
		<g>
			<g>
				<g>
					<path style="fill:#DE9A8C;" d="M677.019,148.421l7.258,2.281l-15.362,47.839c-1.819,5.337-8.131,7.595-12.923,4.622l0,0
						c-3.984-2.471-5.319-7.639-3.031-11.731L677.019,148.421z"/>
					<g>
						<path style="fill:#DE9A8C;" d="M677.316,146.828l0.578-1.891c0.777-2.541,2.14-4.864,3.98-6.781l3.239-3.375
							c0.77-0.802,2.076-0.72,2.739,0.172l0,0c0.56,0.753,0.606,1.771,0.116,2.572l-2.591,4.235l15.015-8.211
							c0.725-0.421,1.655-0.11,1.981,0.663l0.219,0.518c0.257,0.61,0.049,1.317-0.499,1.69l-9.902,5.885l12.309-5.187
							c0.749-0.371,1.653-0.004,1.931,0.784l0.137,0.39c0.233,0.663-0.064,1.396-0.693,1.708l-10.623,5.198l8.931-2.174
							c0.857-0.237,1.713,0.38,1.76,1.267l0.009,0.179c0.032,0.609-0.335,1.167-0.907,1.379l-9.116,2.92l5.034-0.421
							c1-0.23,1.896,0.665,1.668,1.665l0,0c-0.108,0.476-0.458,0.86-0.921,1.013l-23.071,7.065l-1.423-5.281
							C676.686,150.848,676.721,148.774,677.316,146.828z"/>
						
							<path style="fill:none;stroke:#C47268;stroke-width:0.7519;stroke-linecap:round;stroke-linejoin:round;stroke-miterlimit:10;" d="
							M685.377,141.761c0,0,1.177,3.668-1.6,7.608"/>
					</g>
				</g>
				<path style="fill:#262722;" d="M624.394,150.896c0,0,12.443,3.155,31.334,32.169l8.773-25.067l20.054,8.982l-13.565,36.405
					c-3.545,9.515-15.636,12.422-23.06,5.495c-5.959-5.56-25.024-26.649-28.855-33.788L624.394,150.896z"/>
			</g>
			<g>
				<g>
					<path style="fill:#DE9A8C;" d="M562.781,217.067c0,0,9.509,2.684,4.456,12.975c-4.555,9.276-12.454,11.217-19.017,9.657
						c-1.115-0.265-1.674-1.526-1.183-2.561l0,0c0.31-0.653,0.969-1.062,1.691-1.047c2.374,0.05,6.607-0.338,7.783-3.527
						c1.531-4.149-0.638-8.705,1.767-12.986L562.781,217.067z"/>
					<polygon style="fill:#DE9A8C;" points="562.781,217.067 557.062,207.601 548.642,212.334 558.918,223.542 					"/>
				</g>
				<path style="fill:#262722;" d="M562.706,155.103c0,0-16.139,7.963-36.149,28.343c-2.035,2.073-2.848,5.104-2.011,7.886
					c1.535,5.102,6.743,13.614,23.038,24.735l14.157-7.206l-12.374-16.477l23.66-9.807L562.706,155.103z"/>
			</g>
			<g>
				<polygon style="fill:#FFFFFF;" points="626.579,236.971 570.785,237.624 577.213,151.661 620.282,151.661 				"/>
				<path style="fill:#262722;" d="M570.137,151.661l-7.43,3.442c0,0,10.995,39.995-4.919,101.624l13.752,3.183
					c0,0,14.874-44.632,13.523-104.807L570.137,151.661z"/>
				<path style="fill:#262722;" d="M625.965,151.795l3.462,1.604c2.276,1.054,3.529,3.512,3.052,5.974
					c-2.271,11.702-7.08,47.47,5.836,97.488l-13.752,3.183c0,0-14.874-44.632-13.523-104.807L625.965,151.795z"/>
			</g>
		</g>
		<g>
			<g>
				<g>
					<g>
						<path style="fill:#DE9A8C;" d="M605.28,136.208c0,0-2.938,2.471-5.617,3.079c-2.678,0.608-5.285-1.249-5.318-1.272
							c-0.033-0.022-3.13-2.149-3.13-2.149l-1.265,15.499l0.347,0.341c4.546,4.473,11.095,4.533,15.684,0.142l0.671-0.642
							L605.28,136.208z"/>
					</g>
					<path style="fill:#DE9A8C;" d="M615.459,112.171c0.034,6.728-0.94,12.539-1.922,16.665c-0.961,4.039-3.708,6.872-7.6,9.162
						l-0.709,0.417c-4.117,2.422-9.452,2.505-13.656,0.212l0,0c-4.24-2.312-7.216-5.374-8.149-9.698
						c-1.697-7.866-1.922-16.585-1.922-16.585s-1.418-18.199,16.897-17.961C616.714,94.619,615.459,112.171,615.459,112.171z"/>
					<g>
						<circle style="fill:#1E0B02;" cx="590.584" cy="117.594" r="1.482"/>
						<circle style="fill:#1E0B02;" cx="605.126" cy="117.594" r="1.482"/>
						
							<polyline style="fill:none;stroke:#C47268;stroke-width:0.6951;stroke-linecap:round;stroke-linejoin:round;stroke-miterlimit:10;" points="
							596.511,121.181 596.511,123.846 598.308,123.846 						"/>
						<path d="M585.062,111.33l9.684-0.873c0,0-0.867-2.509-4.782-2.102C585.958,108.771,585.062,111.33,585.062,111.33z"/>
						<path d="M610.023,111.33l-9.684-0.873c0,0,0.867-2.509,4.782-2.102C609.128,108.771,610.023,111.33,610.023,111.33z"/>
						
							<path style="fill:none;stroke:#000000;stroke-width:0.6951;stroke-linecap:round;stroke-linejoin:round;stroke-miterlimit:10;" d="
							M592.066,126.002c0,0,2.599,2.151,6.41,1.377"/>
					</g>
					<path style="fill:#FFFFFF;" d="M581.996,105.636c0,0,11.927-9.236,33.482,0c0,0-1.899-13.416-16.741-13.416
						S581.996,105.636,581.996,105.636z"/>
				</g>
				<g>
					<path style="fill:#7B97FB;" d="M621.841,110.776c-1.29-12.15-9.68-18.541-15.655-20.959c-4.935-1.997-10.483-1.994-15.43-0.027
						c-6.045,2.404-14.56,8.79-15.855,20.986c-1.718,16.182,11.03,32.602,11.03,32.602l12.347-3.031l12.694,3.031
						C610.973,143.378,623.56,126.958,621.841,110.776z M601.6,137.919c-2.207,1.085-4.82,1.078-7.013-0.035
						c-8.369-4.245-12.675-14.424-12.157-25.598c0.291-6.28,4.05-10.678,7.844-13.542c4.801-3.624,11.393-3.624,16.194,0
						c3.795,2.864,7.553,7.262,7.844,13.542C614.833,123.511,610.136,133.721,601.6,137.919z"/>
					<path style="fill:#7B97FB;" d="M587.245,140.29l-17.109,11.37c0,0,21.93,18.27,57.594,0.958l-17.892-12.328H587.245z"/>
					<g>
						
							<path style="fill:none;stroke:#6081EA;stroke-width:0.6735;stroke-linecap:round;stroke-linejoin:round;stroke-miterlimit:10;" d="
							M585.932,141.545c0,0,4.478,4.735,12.37,3.94"/>
						
							<path style="fill:none;stroke:#6081EA;stroke-width:0.6735;stroke-linecap:round;stroke-linejoin:round;stroke-miterlimit:10;" d="
							M585.062,151.175c0,0,17.054,6.902,35.22-2.915"/>
						
							<path style="fill:none;stroke:#6081EA;stroke-width:0.6735;stroke-linecap:round;stroke-linejoin:round;stroke-miterlimit:10;" d="
							M591.126,140.909c0,0,5.999,1.47,11.839-3.31"/>
						
							<path style="fill:none;stroke:#6081EA;stroke-width:0.6735;stroke-linecap:round;stroke-linejoin:round;stroke-miterlimit:10;" d="
							M610.973,141.545c0,0-0.95,2.015-4.32,2.463"/>
					</g>
				</g>
			</g>
		</g>
	</g>
	
		<line style="fill:none;stroke:#D6B997;stroke-width:0.9916;stroke-linecap:round;stroke-linejoin:round;stroke-miterlimit:10;" x1="28.805" y1="448.94" x2="700.268" y2="448.94"/>
</g>
</svg>
